<svg xmlns="http://www.w3.org/2000/svg" viewBox="0 0 48 48">
  <path fill="#FFFFFF" d="M33.77 25.14c-.03-3.2 2.61-4.73 2.73-4.81-1.49-2.17-3.8-2.47-4.62-2.5-1.97-.2-3.84 1.16-4.84 1.16-.99 0-2.53-1.13-4.16-1.1-2.14.03-4.11 1.24-5.21 3.15-2.22 3.85-.57 9.55 1.59 12.68 1.06 1.53 2.32 3.25 3.98 3.19 1.6-.06 2.2-1.03 4.13-1.03 1.93 0 2.48 1.03 4.16.99 1.72-.03 2.81-1.56 3.86-3.1 1.22-1.78 1.72-3.5 1.75-3.59-.04-.02-3.36-1.29-3.39-5.12zM30.5 11.38c.87-1.05 1.46-2.51 1.3-3.97-1.26.05-2.78.84-3.68 1.88-.8.93-1.5 2.42-1.31 3.85 1.39.11 2.81-.71 3.69-1.76z"/>
</svg>
